{
    "asset" : {
        "generator" : "Khronos glTF Blender I/O v1.6.16",
        "version" : "2.0"
    },
    "extensionsUsed" : [
        "KHR_texture_transform"
    ],
    "extensionsRequired" : [
        "KHR_texture_transform"
    ],
    "scene" : 0,
    "scenes" : [
        {
            "name" : "Scene",
            "nodes" : [
                0,
                1,
                2,
                3,
                4
            ]
        }
    ],
    "nodes" : [
        {
            "mesh" : 0,
            "name" : "Base"
        },
        {
            "mesh" : 1,
            "name" : "Seduta"
        },
        {
            "mesh" : 2,
            "name" : "Schienale"
        },
        {
            "name" : "Area",
            "rotation" : [
                -0.05597355216741562,
                -0.6661424040794373,
                -0.3943038582801819,
                0.6305916905403137
            ],
            "translation" : [
                0.7644121646881104,
                0.8710020184516907,
                0.6433625221252441
            ]
        },
        {
            "mesh" : 3,
            "name" : "Gambe"
        }
    ],
    "materials" : [
        {
            "doubleSided" : true,
            "name" : "vray_Material #26",
            "normalTexture" : {
                "index" : 0,
                "scale" : 0.10000000149011612
            },
            "pbrMetallicRoughness" : {
                "baseColorTexture" : {
                    "extensions" : {
                        "KHR_texture_transform" : {
                            "offset" : [
                                0,
                                -3
                            ],
                            "scale" : [
                                4,
                                4
                            ]
                        }
                    },
                    "index" : 1
                },
                "metallicFactor" : 0,
                "roughnessFactor" : 0.5527864098548889
            }
        }
    ],
    "meshes" : [
        {
            "name" : "Mesh",
            "primitives" : [
                {
                    "attributes" : {
                        "POSITION" : 0,
                        "NORMAL" : 1,
                        "TEXCOORD_0" : 2
                    },
                    "indices" : 3,
                    "material" : 0
                }
            ]
        },
        {
            "name" : "Mesh.003",
            "primitives" : [
                {
                    "attributes" : {
                        "POSITION" : 4,
                        "NORMAL" : 5,
                        "TEXCOORD_0" : 6
                    },
                    "indices" : 7,
                    "material" : 0
                }
            ]
        },
        {
            "name" : "Mesh.004",
            "primitives" : [
                {
                    "attributes" : {
                        "POSITION" : 8,
                        "NORMAL" : 9,
                        "TEXCOORD_0" : 10
                    },
                    "indices" : 11,
                    "material" : 0
                }
            ]
        },
        {
            "name" : "Mesh.005",
            "primitives" : [
                {
                    "attributes" : {
                        "POSITION" : 12,
                        "NORMAL" : 13,
                        "TEXCOORD_0" : 14
                    },
                    "indices" : 15,
                    "material" : 0
                }
            ]
        }
    ],
    "textures" : [
        {
            "sampler" : 0,
            "source" : 0
        },
        {
            "sampler" : 0,
            "source" : 1
        }
    ],
    "images" : [
        {
            "bufferView" : 4,
            "mimeType" : "image/png",
            "name" : "Solid oak, natural oiled_NRM"
        },
        {
            "bufferView" : 5,
            "mimeType" : "image/png",
            "name" : "Solid oak, natural oiled_COLOR"
        }
    ],
    "accessors" : [
        {
            "bufferView" : 0,
            "componentType" : 5126,
            "count" : 416,
            "max" : [
                0.19926834106445312,
                0.44522592425346375,
                0.17974853515625
            ],
            "min" : [
                -0.2033538818359375,
                0.3892368674278259,
                -0.24245452880859375
            ],
            "type" : "VEC3"
        },
        {
            "bufferView" : 1,
            "componentType" : 5126,
            "count" : 416,
            "type" : "VEC3"
        },
        {
            "bufferView" : 2,
            "componentType" : 5126,
            "count" : 416,
            "type" : "VEC2"
        },
        {
            "bufferView" : 3,
            "componentType" : 5123,
            "count" : 1032,
            "type" : "SCALAR"
        },
        {
            "bufferView" : 6,
            "componentType" : 5126,
            "count" : 11568,
            "max" : [
                0.19635009765625,
                0.448689728975296,
                0.17877197265625
            ],
            "min" : [
                -0.20043182373046875,
                0.43888187408447266,
                -0.23755645751953125
            ],
            "type" : "VEC3"
        },
        {
            "bufferView" : 7,
            "componentType" : 5126,
            "count" : 11568,
            "type" : "VEC3"
        },
        {
            "bufferView" : 8,
            "componentType" : 5126,
            "count" : 11568,
            "type" : "VEC2"
        },
        {
            "bufferView" : 9,
            "componentType" : 5123,
            "count" : 65184,
            "type" : "SCALAR"
        },
        {
            "bufferView" : 10,
            "componentType" : 5126,
            "count" : 3114,
            "max" : [
                0.23028182983398438,
                0.8051292896270752,
                -0.15453338623046875
            ],
            "min" : [
                -0.23436355590820312,
                0.5587350130081177,
                -0.26692962646484375
            ],
            "type" : "VEC3"
        },
        {
            "bufferView" : 11,
            "componentType" : 5126,
            "count" : 3114,
            "type" : "VEC3"
        },
        {
            "bufferView" : 12,
            "componentType" : 5126,
            "count" : 3114,
            "type" : "VEC2"
        },
        {
            "bufferView" : 13,
            "componentType" : 5123,
            "count" : 17856,
            "type" : "SCALAR"
        },
        {
            "bufferView" : 14,
            "componentType" : 5126,
            "count" : 546,
            "max" : [
                0.2515716552734375,
                0.7079612016677856,
                0.20044708251953125
            ],
            "min" : [
                -0.2556419372558594,
                -0.0007821023464202881,
                -0.2765655517578125
            ],
            "type" : "VEC3"
        },
        {
            "bufferView" : 15,
            "componentType" : 5126,
            "count" : 546,
            "type" : "VEC3"
        },
        {
            "bufferView" : 16,
            "componentType" : 5126,
            "count" : 546,
            "type" : "VEC2"
        },
        {
            "bufferView" : 17,
            "componentType" : 5123,
            "count" : 2106,
            "type" : "SCALAR"
        }
    ],
    "bufferViews" : [
        {
            "buffer" : 0,
            "byteLength" : 4992,
            "byteOffset" : 0
        },
        {
            "buffer" : 0,
            "byteLength" : 4992,
            "byteOffset" : 4992
        },
        {
            "buffer" : 0,
            "byteLength" : 3328,
            "byteOffset" : 9984
        },
        {
            "buffer" : 0,
            "byteLength" : 2064,
            "byteOffset" : 13312
        },
        {
            "buffer" : 0,
            "byteLength" : 830820,
            "byteOffset" : 15376
        },
        {
            "buffer" : 0,
            "byteLength" : 410268,
            "byteOffset" : 846196
        },
        {
            "buffer" : 0,
            "byteLength" : 138816,
            "byteOffset" : 1256464
        },
        {
            "buffer" : 0,
            "byteLength" : 138816,
            "byteOffset" : 1395280
        },
        {
            "buffer" : 0,
            "byteLength" : 92544,
            "byteOffset" : 1534096
        },
        {
            "buffer" : 0,
            "byteLength" : 130368,
            "byteOffset" : 1626640
        },
        {
            "buffer" : 0,
            "byteLength" : 37368,
            "byteOffset" : 1757008
        },
        {
            "buffer" : 0,
            "byteLength" : 37368,
            "byteOffset" : 1794376
        },
        {
            "buffer" : 0,
            "byteLength" : 24912,
            "byteOffset" : 1831744
        },
        {
            "buffer" : 0,
            "byteLength" : 35712,
            "byteOffset" : 1856656
        },
        {
            "buffer" : 0,
            "byteLength" : 6552,
            "byteOffset" : 1892368
        },
        {
            "buffer" : 0,
            "byteLength" : 6552,
            "byteOffset" : 1898920
        },
        {
            "buffer" : 0,
            "byteLength" : 4368,
            "byteOffset" : 1905472
        },
        {
            "buffer" : 0,
            "byteLength" : 4212,
            "byteOffset" : 1909840
        }
    ],
    "samplers" : [
        {
            "magFilter" : 9729,
            "minFilter" : 9987
        }
    ],
    "buffers" : [
        {
            "byteLength" : 1914052,
            "uri" : "data:application/octet-stream;base64,"
        }
    ]
}
